<svg id="Lager_1" data-name="Lager 1" xmlns="http://www.w3.org/2000/svg" viewBox="0 0 200.26 198.5"><defs><style>.cls-1{fill:#fff;}</style></defs><path class="cls-1" d="M365.88,306.89c-2.22,9.6-14.37,2-17.29,13.71-2.77,11.08,8.6,22.56,1.85,22.16-9.26-.54-20.58-3.23-14.59,13.3-2.85-19.15,17-4.81,21.6-11.08s-6.75-22,3.21-21.83,13.58,2.27,17.79-3.95C373.52,316,370.35,312.77,365.88,306.89Z" transform="translate(-304.58 -182.4)"/><path class="cls-1" d="M393.19,237.56c13.37-14.15-3.14-10.36-3.14-20.73.08-5.91,17.27-7.66,19.48-13.75s-23-10.85-6.66-20.68c-9.2,12.64,12.4,11.27,11.9,20.68-.4,7.56-12.65,10.26-12.65,13.78-.23,6.35,17.88,6.53,10.51,20.89C406.77,236.39,401.11,236.14,393.19,237.56Z" transform="translate(-304.58 -182.4)"/><path class="cls-1" d="M427.94,244.15c2.13-5.18,6.84-11.92,16.66-9.15,16.45,4.66,1.68-10.72,12-16.23,8.75-4.68,12.63,7,23.73,3.79-7.54,8.94-16.16-4.76-21.11,2.55-4.4,6.46,3.59,12.7,1,17.38-4,7.26-11.83.89-15.76,3.8s-3.39,7.85-3.39,11.84C438.28,252.58,432.81,247.74,427.94,244.15Z" transform="translate(-304.58 -182.4)"/><path class="cls-1" d="M447.23,272.7c11.77,10.84,12.59-4,20.12-4,6.59,0,9.27,19.79,16.1,20,7.76.23,12.15-17.9,21.39-5.71-11-6-12.72,11.23-21.16,11.37-12.37.21-12.81-14.34-16.59-14.34-5.18.25-5.13,19.91-20.43,11.9C448.27,286.62,448.52,279.68,447.23,272.7Z" transform="translate(-304.58 -182.4)"/><path class="cls-1" d="M426.51,319.8c10.05,6.75.76,13.56,6.29,18.93,3.94,3.79,15.85-4.6,21.23-2.87,3.45,1.12-3,11.2,2.18,15.3,4.37,3.44,13.6,2.38,18.06-.91-6.11.72-12.7,1.66-15.35-4.4s4.35-14,1.48-17.53c-2.49-3.05-18.26,5.94-17.08-4.88.48-4.31,3.59-13.75-3.34-16.29A46,46,0,0,1,426.51,319.8Z" transform="translate(-304.58 -182.4)"/><path class="cls-1" d="M393.82,325.64c-2.75,12.43,7,14.12,7.14,18.59.27,6.71-10.6,7.91-10.41,16,.12,5.26,18.53,10.33,12,20.63,9.2-7.14-4.53-15.54-4.37-20.46.34-9.11,16.07-7,15.76-17.18-.24-9-7-6.48-1.06-17.64A48.23,48.23,0,0,1,393.82,325.64Z" transform="translate(-304.58 -182.4)"/><path class="cls-1" d="M358.83,273.49c-15.06-5.41-18.6,12.57-22.83,12.34s-9.46-17.84-14.74-13.17c-9.24,8.14-7.63,14.25-16.68,10.55,8.37,8.26,10.38-2.18,17.15-6,5.7-3.2,5.54,19,14.5,19.22,4.94.13,10.84-8,13.9-8a12.89,12.89,0,0,1,9.3,4.45C357.79,286.09,357.57,278.91,358.83,273.49Z" transform="translate(-304.58 -182.4)"/><path class="cls-1" d="M365.06,258c-9.57-2.68-7.47-12.35-6.61-18.52.82-6,.42-10-9.16-4.45s-16.73-5.16-11.08-11.19c4.94-5.28-2.34-8.53-7.45-7,1.77-2.19,10.36-6.38,13.18,2.32,1.53,4.7-3.12,8.45-.6,10.37,4.66,3.58,11.16-9.63,18.63-7,6.6,2.34,3.88,7.23,6.5,15.66,1.23,4,4.43,6.2,8.83,6.58A43.78,43.78,0,0,0,365.06,258Z" transform="translate(-304.58 -182.4)"/><path class="cls-1" d="M390.32,275.85c-2.61-.37-2.16-2.38-2.16-2.38l-3-1.14s-1,5.78,4.85,5.77c5.5,0,6.4-2.55,6.48-3.14-1.66-.36-2.55-.46-3.59-.6C392.49,275,392.46,276.15,390.32,275.85Z" transform="translate(-304.58 -182.4)"/><path class="cls-1" d="M418.66,273a1.86,1.86,0,0,1-1.52,2.88c-2.15.3-2.45-.66-2.75-1.63-1.11.22-2.7.38-3.95.66.09.59,2,3.5,7.38,2.54,5.92-1.05,3.82-5.67,3.82-5.67S419.66,272.54,418.66,273Z" transform="translate(-304.58 -182.4)"/><path class="cls-1" d="M402.75,299.66c-16.69.24-25.18-4.44-27.08-6.75-.73,2.55,8,19.94,27.83,19.77,21.49-.17,27-19.68,27-22.91C427.37,293.25,423.66,299.34,402.75,299.66Z" transform="translate(-304.58 -182.4)"/><path class="cls-1" d="M402.93,239.78a41.68,41.68,0,1,0,41.68,41.68A41.68,41.68,0,0,0,402.93,239.78Zm1.21,30c1.73,3.45.3,5.61,12,2,4.36-1.34,12.11-9.07,18.79-1.88-4.74-3.56-10.53-.66-10.19,1.32-.22,1.05.16,5.73-6.19,7.14-6.08,1.36-8.88-2.11-9.7-3C404.32,275.4,404,271.52,404.14,269.77Zm2,17.06c-1.44,1.07,1.32-2.62,3.21-1.83s-1.18,4.88-.34,2.39C409.69,285.35,407.82,285.58,406.16,286.83Zm-14.88-14.64c11.45,3.34,10.66.82,11-.22.13.76-.13,3.43-4.62,3.36-.82.9-1.05,4.17-7.51,4.12-7.82,0-8.23-5.83-8.35-7.18-.24-3.06-6.52-3-9.48-2.39C379.4,266.51,386.9,270.91,391.28,272.19Zm7.31,16.31c.37,1.35-2.9-1.51-.35-2.45s4,2,3.4,1.51C399.86,286.25,397.9,286,398.59,288.5Zm33.91,0c-.74,8-6.52,24.75-28.92,25-19.31.17-29.45-12.91-30-20.69-1.28,1.4-1.94,3.68-1.92,6.59-.55-1.21-1.22-6.84,1.78-9.07a4.05,4.05,0,0,1,3.8-.26c-1.41.73-1,.28-1.53.82.75,1.85,10.14,8.06,26.82,8.05,18.42,0,25.17-6.43,27.8-12.19a5,5,0,0,0-3-1.3,5.78,5.78,0,0,1,5.46.29c1.89,1.3,3.13,4.83,3,8.63C435.53,292.45,434.31,289.09,432.5,288.51Z" transform="translate(-304.58 -182.4)"/></svg>